<?xml version="1.0" encoding="UTF-8"?>
<svg version="1.1" viewBox="0 0 1254 1254" width="1254" height="1254" xmlns="http://www.w3.org/2000/svg">
<path transform="translate(0)" d="m0 0h1254v1254h-1254z" fill="#FDFDFD"/>
<path transform="translate(608,236)" d="m0 0h190l21 2 18 4 18 6 16 8 11 7 13 11 10 12 9 16 6 16 3 17v24l-3 17-6 17-6 12-8 11-9 10-10 9-16 10-19 9-9 3-1 2 12 2 19 5 17 6 16 8 13 8 11 9 9 9 11 15 9 19 4 14 3 19v19l-3 19-5 17-9 19-8 12-12 14-14 12-18 11-19 9-19 6-20 4-20 2h-206l-2-3 1-5 9-3 15-6 8-6 5-8 3-12v-396l-3-12-6-8-8-6-13-5-10-3-1-4z" fill="#C49D41"/>
<path transform="translate(409,236)" d="m0 0h176l2 2v5l-4 3-15 5-11 6-8 9-4 11-2 16-1 309-3 29-5 23-8 24-8 16-7 11-9 11-7 8-11 9-14 9-12 6-17 6-17 4-16 2h-34l-22-3-20-5-21-9-12-8-10-9-8-8-9-15-5-13-2-11v-20l3-12 5-10 7-8 10-6 7-2h18l11 4 9 6 6 8 4 11v15l-5 15-9 16-3 8 1 9 4 7 9 8 13 6 12 3 7 1h25l17-4 16-8 12-11 8-11 8-16 6-20 4-23 2-20 1-29v-298l-2-13-5-12-7-8-14-7-15-4-20-3-3-2v-11z" fill="#1B1F1F"/>
<path transform="translate(724,470)" d="m0 0h38l28 2 22 4 18 6 19 10 10 8 12 12 8 13 6 13 4 13 3 19v22l-3 21-5 17-8 16-8 11-9 10-13 10-16 8-20 6-12 2-12 1h-37l-20-2-10-3-6-5-3-5-1-4v-204z" fill="#FDFDFD"/>
<path transform="translate(729,259)" d="m0 0h47l21 3 16 5 13 7 12 11 8 10 7 14 5 16 2 14v27l-3 18-5 15-8 15-9 11-13 10-17 8-18 4-18 2h-60v-188l4-1z" fill="#FDFDFD"/>
<path transform="translate(621,788)" d="m0 0h12v71h31v13h-31v148h-12v-148h-31v-13l30-1z" fill="#C49D41"/>
<path transform="translate(696,859)" d="m0 0h264v13h-264z" fill="#C49D41"/>
<path transform="translate(294,859)" d="m0 0h264v13h-264z" fill="#C49D41"/>
</svg>
