<svg xmlns="http://www.w3.org/2000/svg" viewBox="0 0 760 440" role="img" aria-labelledby="title desc">
  <title id="title">Sensor Test Acceleration Data</title>
  <desc id="desc">Line chart showing simulated jolt and cutting acceleration data from the OsteoX sensor test.</desc>
  <rect width="760" height="440" fill="#ffffff"/>
  <text x="56" y="48" fill="#111c1f" font-family="Arial, sans-serif" font-size="26" font-weight="700">Sensor Test: Simulated Jolt and Cutting</text>
  <text x="56" y="76" fill="#526064" font-family="Arial, sans-serif" font-size="14">Slide 16 data: emergency cut-off set at 1.2 g.</text>
  <g stroke="#d9e0dd" stroke-width="1">
    <line x1="70" y1="300" x2="700" y2="300"/>
    <line x1="70" y1="245" x2="700" y2="245"/>
    <line x1="70" y1="190" x2="700" y2="190"/>
    <line x1="70" y1="135" x2="700" y2="135"/>
    <line x1="70" y1="80" x2="700" y2="80"/>
  </g>
  <line x1="70" y1="300" x2="700" y2="300" stroke="#111c1f" stroke-width="2"/>
  <line x1="70" y1="80" x2="70" y2="300" stroke="#111c1f" stroke-width="2"/>
  <line x1="70" y1="146" x2="700" y2="146" stroke="#d4ad3f" stroke-width="2" stroke-dasharray="8 7"/>
  <text x="604" y="139" fill="#9a761b" font-family="Arial, sans-serif" font-size="13" font-weight="700">1.2 g cut-off</text>
  <polyline fill="none" stroke="#111c1f" stroke-width="3" stroke-linejoin="round" stroke-linecap="round" points="70.0,190.0 83.5,190.0 97.0,190.0 110.4,190.0 123.9,190.0 137.4,190.0 150.9,190.0 164.3,190.0 177.8,190.0 191.3,185.6 204.8,187.8 218.3,192.2 231.7,192.2 245.2,196.6 258.7,201.0 272.2,207.6 285.7,216.4 299.1,280.2 312.6,269.2 326.1,198.8 339.6,168.0 353.0,108.6 366.5,86.6 380.0,106.4 393.5,137.2 407.0,148.2 420.4,148.2 433.9,165.8 447.4,183.4 460.9,183.4 474.3,190.0 487.8,190.0 501.3,190.0 514.8,187.8 528.3,190.0 541.7,187.8 555.2,187.8 568.7,187.8 582.2,187.8 595.7,187.8 609.1,190.0 622.6,187.8 636.1,190.0 649.6,190.0 663.0,190.0 676.5,187.8 690.0,190.0"/>
  <polyline fill="none" stroke="#d4ad3f" stroke-width="3" stroke-linejoin="round" stroke-linecap="round" points="70.0,187.8 83.5,176.8 97.0,201.0 110.4,214.2 123.9,214.2 137.4,181.2 150.9,168.0 164.3,179.0 177.8,192.2 191.3,205.4 204.8,207.6 218.3,176.8 231.7,185.6 245.2,168.0 258.7,201.0 272.2,181.2 285.7,172.4 299.1,165.8 312.6,207.6 326.1,207.6 339.6,190.0 353.0,218.6 366.5,183.4 380.0,174.6 393.5,174.6 407.0,205.4 420.4,207.6 433.9,212.0 447.4,196.6 460.9,181.2 474.3,196.6 487.8,183.4 501.3,198.8 514.8,187.8 528.3,201.0 541.7,205.4 555.2,203.2 568.7,212.0 582.2,203.2 595.7,187.8 609.1,176.8 622.6,201.0 636.1,214.2 649.6,214.2 663.0,181.2 676.5,168.0 690.0,179.0"/>
  <g font-family="Arial, sans-serif" font-size="13" fill="#526064" text-anchor="end">
    <text x="60" y="304">0.5</text>
    <text x="60" y="249">0.75</text>
    <text x="60" y="194">1.0</text>
    <text x="60" y="139">1.25</text>
    <text x="60" y="84">1.5</text>
  </g>
  <g font-family="Arial, sans-serif" font-size="13" fill="#111c1f">
    <line x1="548" y1="354" x2="584" y2="354" stroke="#111c1f" stroke-width="3" stroke-linecap="round"/>
    <text x="594" y="358">Jolt</text>
    <line x1="548" y1="378" x2="584" y2="378" stroke="#d4ad3f" stroke-width="3" stroke-linecap="round"/>
    <text x="594" y="382">Cutting</text>
  </g>
  <text x="30" y="200" fill="#526064" font-family="Arial, sans-serif" font-size="13" transform="rotate(-90 30 200)" text-anchor="middle">Acceleration (g)</text>
  <text x="385" y="340" fill="#526064" font-family="Arial, sans-serif" font-size="13" text-anchor="middle">Time (s)</text>
</svg>
