<svg xmlns="http://www.w3.org/2000/svg" viewBox="0 0 820 500" role="img" aria-labelledby="title desc">
  <title id="title">Bone Extraction Test Times</title>
  <desc id="desc">Bar chart comparing Kerrison Rongeur and OsteoX bone extraction times for two test subjects.</desc>
  <rect width="820" height="500" rx="18" fill="#ffffff"/>

  <g font-family="Arial, sans-serif">
    <text x="56" y="54" fill="#111c1f" font-size="28" font-weight="700">Bone Extraction Test Times</text>
    <text x="56" y="82" fill="#526064" font-size="15">OsteoX reduced bone removal time by 59% and 51% compared with the rongeur.</text>
  </g>

  <g font-family="Arial, sans-serif" font-size="13" fill="#526064" text-anchor="end">
    <text x="76" y="382">0</text>
    <text x="76" y="327">100</text>
    <text x="76" y="272">200</text>
    <text x="76" y="217">300</text>
    <text x="76" y="162">400</text>
    <text x="76" y="107">500</text>
  </g>

  <g stroke="#e2e7e4" stroke-width="1">
    <line x1="92" y1="378" x2="728" y2="378"/>
    <line x1="92" y1="323" x2="728" y2="323"/>
    <line x1="92" y1="268" x2="728" y2="268"/>
    <line x1="92" y1="213" x2="728" y2="213"/>
    <line x1="92" y1="158" x2="728" y2="158"/>
    <line x1="92" y1="103" x2="728" y2="103"/>
  </g>

  <g stroke="#111c1f" stroke-width="2">
    <line x1="92" y1="378" x2="728" y2="378"/>
    <line x1="92" y1="103" x2="92" y2="378"/>
  </g>

  <g>
    <rect x="176" y="115.8" width="58" height="262.2" rx="5" fill="#111c1f"/>
    <rect x="248" y="293.3" width="58" height="84.7" rx="5" fill="#d4ad3f"/>
    <rect x="500" y="132.7" width="58" height="245.3" rx="5" fill="#111c1f"/>
    <rect x="572" y="282.6" width="58" height="95.4" rx="5" fill="#d4ad3f"/>
  </g>

  <g font-family="Arial, sans-serif" font-size="14" font-weight="700" text-anchor="middle">
    <text x="205" y="104" fill="#111c1f">476.8s</text>
    <text x="277" y="282" fill="#9a761b">154.0s</text>
    <text x="529" y="121" fill="#111c1f">446.0s</text>
    <text x="601" y="271" fill="#9a761b">173.4s</text>
  </g>

  <g font-family="Arial, sans-serif" font-size="14" fill="#111c1f" text-anchor="middle">
    <text x="205" y="410">Rongeur</text>
    <text x="277" y="410">OsteoX</text>
    <text x="529" y="410">Rongeur</text>
    <text x="601" y="410">OsteoX</text>
    <text x="241" y="448" font-size="16" font-weight="700">Subject 1</text>
    <text x="565" y="448" font-size="16" font-weight="700">Subject 2</text>
  </g>

  <g font-family="Arial, sans-serif" font-size="14" fill="#111c1f">
    <rect x="592" y="50" width="16" height="16" fill="#111c1f" rx="2"/>
    <text x="616" y="63">Kerrison Rongeur</text>
    <rect x="592" y="76" width="16" height="16" fill="#d4ad3f" rx="2"/>
    <text x="616" y="89">OsteoX</text>
  </g>

  <text x="34" y="242" fill="#526064" font-family="Arial, sans-serif" font-size="14" transform="rotate(-90 34 242)" text-anchor="middle">Time (seconds)</text>
</svg>
